<?xml version="1.0" encoding="UTF-8" standalone="no"?>
<!-- Created with Inkscape (http://www.inkscape.org/) -->

<svg
   xmlns:dc="http://purl.org/dc/elements/1.1/"
   xmlns:cc="http://creativecommons.org/ns#"
   xmlns:rdf="http://www.w3.org/1999/02/22-rdf-syntax-ns#"
   xmlns:svg="http://www.w3.org/2000/svg"
   xmlns="http://www.w3.org/2000/svg"
   version="1.1"
   width="744.09448"
   height="815.35999"
   id="svg2">
  <defs
     id="defs4" />
  <metadata
     id="metadata7">
    <rdf:RDF>
      <cc:Work
         rdf:about="">
        <dc:format>image/svg+xml</dc:format>
        <dc:type
           rdf:resource="http://purl.org/dc/dcmitype/StillImage" />
        <dc:title></dc:title>
      </cc:Work>
    </rdf:RDF>
  </metadata>
  <g
     transform="translate(0,-236.99932)"
     id="layer1">
    <path
       d="M 350.08659,1036.6758 C 275.21357,1031.2918 206.86804,1004.2867 148.77111,957.13088 135.99575,946.7615 111.13867,921.90441 100.76925,909.12902 57.093752,855.31987 31.278238,794.23792 22.739672,724.50364 c -2.190839,-17.89255 -2.190839,-59.40896 0,-77.30151 6.061211,-49.50174 21.283423,-95.85521 45.012376,-137.06805 l 3.81258,-6.62175 -1.294703,-4.79779 c -1.909145,-7.07475 -5.342421,-26.25045 -6.678235,-37.29955 -1.52797,-12.63857 -1.52797,-49.72968 0,-62.36826 5.843844,-48.33719 21.641724,-88.51017 45.59782,-115.95225 11.26077,-12.89941 26.42999,-23.62991 39.37933,-27.85644 12.83438,-4.189 11.33952,-4.5228 20.96785,4.68194 9.63008,9.20642 16.4144,17.34295 23.75557,28.49041 11.31785,17.18598 22.67688,42.62249 29.14444,65.26375 2.38514,8.34979 3.67281,11.55261 4.64404,11.55111 0.73909,-8.8e-4 4.90145,-1.53696 9.24966,-3.41293 28.55867,-12.32118 67.25485,-22.13216 101.45822,-25.72356 14.2233,-1.49346 54.29394,-1.49346 68.51724,0 34.2034,3.5914 72.89956,13.40238 101.45825,25.72356 4.34821,1.87597 8.51055,3.41179 9.24966,3.41293 0.97118,0.002 2.25887,-3.20132 4.64406,-11.55111 6.4675,-22.64126 17.82652,-48.07777 29.14442,-65.26375 7.34119,-11.14746 14.12545,-19.284 23.75555,-28.49041 9.62834,-9.20474 8.13343,-8.87095 20.96785,-4.68194 12.94932,4.22653 28.11851,14.95703 39.37932,27.85643 23.95609,27.44209 39.75397,67.61507 45.59779,115.95226 1.52802,12.63858 1.52802,49.72969 0,62.36826 -1.33574,11.0491 -4.76907,30.2248 -6.67824,37.29955 l -1.29462,4.79779 3.81254,6.62175 c 23.72893,41.21284 38.95118,87.56631 45.01241,137.06805 2.19079,17.89255 2.19079,59.40896 0,77.30151 -8.53857,69.73428 -34.35411,130.81623 -78.02964,184.62538 -10.36938,12.77539 -35.22647,37.63248 -48.00186,48.00186 -53.54394,43.46022 -115.33463,69.65392 -183.74693,77.89212 -11.36994,1.3692 -50.72412,2.427 -61.48983,1.6528 z m 33.38019,-239.63104 c 8.13015,-1.35019 15.59765,-3.9516 27.09394,-9.43855 11.51263,-5.49475 23.69581,-18.51728 31.11289,-33.25627 4.18799,-8.32229 5.35427,-14.72713 4.7948,-26.3326 -0.7594,-15.75573 -6.07317,-25.51913 -18.59979,-34.17498 -15.04122,-10.39345 -27.10882,-13.26003 -55.82138,-13.26003 -28.71255,0 -40.78016,2.86658 -55.82141,13.26003 -12.52661,8.65585 -17.84036,18.41925 -18.59979,34.17498 -0.5594,11.60547 0.60685,18.01031 4.79483,26.3326 7.41705,14.73899 19.60026,27.76152 31.11289,33.25627 20.62364,9.84325 33.19136,12.21886 49.93302,9.43855 z M 206.90312,767.07739 c 27.29709,-1.72275 50.52631,-3.50201 51.62048,-3.95391 3.13261,-1.2938 4.28304,-4.68929 2.50709,-7.39973 -1.32782,-2.0265 -2.00667,-2.23106 -7.37162,-2.22131 -3.25002,0.006 -26.6128,1.37652 -51.91728,3.04578 -50.06761,3.30284 -50.17952,3.32143 -50.17952,8.33346 0,2.44738 2.5619,5.2794 4.80719,5.31405 0.49642,0.008 23.23656,-1.3956 50.53366,-3.11834 z m 383.67682,1.73696 c 2.69747,-1.88939 2.62676,-6.05594 -0.13343,-7.86449 -1.64697,-1.07913 -11.76345,-2.00501 -48.09384,-4.40164 -25.30447,-1.66926 -48.66727,-3.03987 -51.91727,-3.04578 -5.3649,-0.01 -6.04375,0.19481 -7.37158,2.22131 -1.7753,2.70946 -0.6271,6.1015 2.50703,7.40631 1.69273,0.70471 85.66843,6.61327 98.6405,6.94038 2.73647,0.069 5.15882,-0.40876 6.36859,-1.25609 z m -325.9928,-36.94531 c 1.34411,-2.05139 1.36785,-2.54207 0.2217,-4.58407 -0.70595,-1.25773 -2.46124,-2.5935 -3.90066,-2.96838 -4.17441,-1.08718 -144.38153,-12.2615 -146.28157,-11.65845 -4.03006,1.27909 -4.33977,7.57381 -0.45963,9.34173 2.26392,1.03151 129.85672,11.8949 141.68815,12.06349 6.87615,0.098 7.29979,-0.009 8.73201,-2.19432 z m 295.14906,-3.3482 c 37.76416,-3.09778 69.48167,-6.07092 70.48334,-6.60698 3.6156,-1.93503 3.12096,-8.02661 -0.75167,-9.25572 -1.90004,-0.60305 -142.10714,10.57127 -146.28159,11.65845 -1.43939,0.37488 -3.19466,1.71065 -3.90066,2.96838 -1.14608,2.042 -1.12236,2.53268 0.22172,4.58407 1.33433,2.03643 2.07651,2.29654 6.53593,2.29071 2.76687,-0.004 35.92868,-2.54113 73.69293,-5.63891 z m -287.52569,-27.07589 1.79602,-2.41567 -1.80024,-2.41568 c -2.11114,-2.83282 -3.34794,-3.13245 -31.48376,-7.62727 -10.62896,-1.69803 -27.89955,-4.48122 -38.37908,-6.18488 -10.47955,-1.70365 -20.26302,-3.09755 -21.74105,-3.09755 -2.87495,0 -6.20105,2.61284 -6.20105,4.87127 0,2.44649 4.01182,5.50496 8.01515,6.11048 2.11398,0.31976 21.43409,3.47737 42.93357,7.01694 21.49948,3.53957 40.43422,6.37313 42.07719,6.2968 2.1405,-0.0994 3.49631,-0.82349 4.78325,-2.55444 z m 248.73667,-4.20879 c 24.04955,-3.88501 44.45144,-7.4517 45.3376,-7.92597 1.66927,-0.89334 3.40838,-3.5244 3.40838,-5.15641 0,-1.88997 -3.56905,-4.44988 -6.20406,-4.44988 -1.47962,0 -8.6937,0.9769 -16.03128,2.17088 -7.33749,1.19398 -24.40909,3.95467 -37.93685,6.13485 -36.44371,5.8734 -35.36026,5.63652 -37.35016,8.16629 -0.95687,1.21652 -1.73981,2.50053 -1.73981,2.85336 0,1.47034 3.76046,5.27055 5.21548,5.27055 0.86587,0 21.25115,-3.17865 45.3007,-7.06367 z"
       id="path2996"
       style="fill:#010101" />
  </g>
</svg>
